<svg width="104" height="23" viewBox="0 0 104 23" fill="none" xmlns="http://www.w3.org/2000/svg">
<path fill-rule="evenodd" clip-rule="evenodd" d="M83.012 19.7831C82.9458 19.2605 82.9109 18.7102 82.9109 18.1392V11.7755V11.7478C82.9109 11.5299 82.8902 11.3156 82.8525 11.1041C82.624 9.91799 81.8209 8.93119 80.7451 8.44349C80.2922 8.2598 79.8038 8.13164 79.2777 8.05902C78.6241 7.96931 77.9769 7.92446 77.3397 7.92446C76.6341 7.92446 75.9356 7.99352 75.2393 8.13164C74.5437 8.27333 73.9179 8.50543 73.3604 8.83436C73.2052 8.92478 73.0564 9.02446 72.914 9.13553L72.9169 9.13909C72.9076 9.14905 72.8934 9.15617 72.8827 9.16614C72.8692 9.17682 72.8549 9.18394 72.845 9.19391C72.8314 9.20459 72.8207 9.21171 72.8101 9.22239C71.9521 9.89307 71.3982 11.1632 71.3776 12.3294V12.3878V12.4056H74.8591C74.894 12.0525 74.9524 11.6929 75.0699 11.3775H75.0734C75.2564 10.8863 75.6651 10.5054 76.1742 10.353C76.4646 10.2633 76.8142 10.2184 77.2293 10.2184C77.7519 10.2184 78.1705 10.2982 78.4988 10.4399C78.5102 10.4434 78.5194 10.447 78.5272 10.4505V10.4534C79.0427 10.6755 79.4023 11.1874 79.4023 11.7862C79.4023 12.4092 79.0078 12.9417 78.4511 13.1461C78.3649 13.1774 78.2709 13.2052 78.1741 13.2287C77.7825 13.3262 77.3297 13.3988 76.8249 13.4472C76.3158 13.4985 75.7997 13.5647 75.2778 13.6438C74.7509 13.7271 74.2326 13.8381 73.7171 13.9762C73.5576 14.0218 73.27 14.1322 73.27 14.1322C72.0867 14.6028 71.2081 15.6686 71.0073 16.9594C70.9895 17.1324 70.9803 17.3126 70.9803 17.4991C70.9803 17.7725 71.0002 18.0324 71.0387 18.2744C71.322 19.655 72.4783 20.8105 73.7584 21.091C73.9179 21.1259 74.4953 21.2783 75.329 21.2783C75.9449 21.2783 76.8562 21.1672 77.6102 20.9394C78.3606 20.7065 79.0149 20.3057 79.5753 19.7347C79.5888 19.9462 79.6201 20.1569 79.6586 20.3612C79.7006 20.5649 79.7554 20.7656 79.8181 20.9629H83.3537C83.1914 20.7001 83.0775 20.3057 83.012 19.7831V19.7831ZM79.43 16.0566C79.43 16.2503 79.4094 16.513 79.3681 16.8384C79.3261 17.1673 79.2157 17.4884 79.0356 17.8102C78.8555 18.1292 78.5785 18.4026 78.2019 18.6304C77.8245 18.8625 77.2912 18.9772 76.6063 18.9772C76.3678 18.9772 76.0595 18.9558 75.7996 18.9109C75.6928 18.8903 75.5611 18.8454 75.5611 18.8454C75.1916 18.7137 74.879 18.4539 74.6825 18.1185C74.5821 17.9491 74.5124 17.759 74.4782 17.5582V17.5546C74.4718 17.5133 74.4675 17.4713 74.464 17.43C74.4604 17.3852 74.4604 17.3396 74.4604 17.2912C74.4604 17.2463 74.4604 17.2015 74.464 17.1566C74.464 17.1395 74.464 17.1253 74.4675 17.1082C74.4746 17.0392 74.5124 16.8733 74.5159 16.859C74.6583 16.3364 75.0528 15.9142 75.5611 15.7377C75.596 15.7277 75.6309 15.717 75.6651 15.7063C76.2361 15.5511 77.0114 15.4194 77.3674 15.3674C77.6444 15.3262 77.9107 15.2948 78.1634 15.2436C78.4197 15.1944 78.6554 15.1325 78.8761 15.0599C79.0975 14.9873 79.2819 14.8833 79.43 14.7516V16.0566ZM51.9442 19.7831C51.878 19.2605 51.8438 18.7102 51.8438 18.1392V11.7755C51.8438 11.7755 51.8402 11.7549 51.8402 11.7478C51.8402 11.5299 51.8224 11.3156 51.7854 11.1041C51.5526 9.91799 50.7538 8.93119 49.6744 8.44349C49.2244 8.2598 48.736 8.13164 48.2106 8.05902C47.5563 7.96931 46.9091 7.92446 46.2719 7.92446C45.5663 7.92446 44.8679 7.99352 44.1716 8.13164C43.4767 8.27333 42.8501 8.50543 42.2934 8.83436C42.1374 8.92478 41.9886 9.02446 41.847 9.13553L41.8505 9.13909C41.8398 9.14905 41.8256 9.15617 41.8156 9.16614C41.8014 9.17682 41.7879 9.18394 41.7736 9.19391C41.7629 9.20459 41.753 9.21171 41.7394 9.22239C40.8844 9.89307 40.3312 11.1632 40.3098 12.3294V12.3878V12.4056H43.7914C43.8255 12.0525 43.8853 11.6929 44.0021 11.3775C44.1894 10.8863 44.5973 10.5054 45.1064 10.353C45.3969 10.2633 45.7464 10.2184 46.1615 10.2184C46.6813 10.2184 47.1028 10.2982 47.431 10.4399C47.4424 10.4434 47.4488 10.447 47.4587 10.4505V10.4534C47.9749 10.6755 48.3345 11.1874 48.3345 11.7862C48.3345 12.4092 47.9365 12.9417 47.3833 13.1461C47.2971 13.1774 47.2031 13.2052 47.1063 13.2287C46.7119 13.3262 46.2619 13.3988 45.7571 13.4472C45.2481 13.4985 44.7326 13.5647 44.21 13.6438C43.6839 13.7271 43.1648 13.8381 42.6494 13.9762C42.487 14.0218 42.1994 14.1322 42.1994 14.1322C41.0204 14.6028 40.1403 15.6686 39.936 16.9594C39.9225 17.1324 39.9125 17.3126 39.9125 17.4991C39.9125 17.7725 39.9325 18.0324 39.9709 18.2744C40.2543 19.655 41.4105 20.8105 42.6906 21.091C42.8466 21.1259 43.4275 21.2783 44.2584 21.2783C44.8778 21.2783 45.7877 21.1672 46.5389 20.9394C47.2936 20.7065 47.9472 20.3057 48.5046 19.7347C48.5217 19.9462 48.5495 20.1569 48.5908 20.3612C48.6328 20.5649 48.6841 20.7656 48.7503 20.9629H52.2866C52.1208 20.7001 52.0061 20.3057 51.9442 19.7831V19.7831ZM48.3622 16.0566C48.3622 16.2503 48.3388 16.513 48.3003 16.8384C48.2583 17.1673 48.1479 17.4884 47.9678 17.8102C47.7877 18.1292 47.5079 18.4026 47.1341 18.6304C46.7567 18.8625 46.2235 18.9772 45.535 18.9772C45.2965 18.9772 44.9925 18.9558 44.7283 18.9109C44.6215 18.8903 44.4934 18.8454 44.4934 18.8454C44.1203 18.7137 43.8085 18.4539 43.6148 18.1185C43.5144 17.9491 43.4418 17.759 43.4105 17.5582V17.5546C43.4041 17.5133 43.4005 17.4713 43.3962 17.43C43.3934 17.3852 43.3898 17.3396 43.3898 17.2912C43.3898 17.2463 43.3934 17.2015 43.3962 17.1566C43.3962 17.1395 43.3962 17.1253 43.4005 17.1082C43.4069 17.0392 43.4454 16.8733 43.4489 16.859C43.5906 16.3364 43.985 15.9142 44.4934 15.7377C44.5283 15.7277 44.5632 15.717 44.5945 15.7063C45.169 15.5511 45.9444 15.4194 46.2968 15.3674C46.5766 15.3262 46.8436 15.2948 47.0964 15.2436C47.352 15.1944 47.5876 15.1325 47.809 15.0599C48.0305 14.9873 48.2142 14.8833 48.3622 14.7516V16.0566ZM103.289 10.3672C103.058 9.78556 102.739 9.31495 102.331 8.9554C101.923 8.59585 101.431 8.33242 100.857 8.17009C100.282 8.00705 99.6629 7.92446 98.9915 7.92446C98.1094 7.92446 97.3412 8.1352 96.694 8.56452C96.0503 8.99028 95.5384 9.48155 95.1611 10.0355C94.8186 9.24944 94.3131 8.70265 93.6524 8.39151C92.9881 8.08038 92.2541 7.92446 91.4545 7.92446C90.618 7.92446 89.8768 8.10388 89.2332 8.46414C88.6522 8.78595 88.1503 9.2288 87.721 9.78556V8.26692H84.5932H84.2365V20.9629H87.721V13.5961C87.721 12.9731 87.8114 12.4711 87.9908 12.0867C88.1709 11.7029 88.3895 11.4089 88.6415 11.201C88.8943 10.9973 89.157 10.8585 89.4268 10.7859C89.5137 10.7617 89.5934 10.7446 89.6661 10.7275C89.7764 10.7097 89.8875 10.6997 90.0014 10.6997C91.1121 10.6997 92.0263 11.5299 92.1573 12.6028C92.1608 12.6441 92.1637 12.6826 92.1679 12.7239C92.1815 13.0941 92.1922 13.4643 92.1922 13.8417V20.9629H95.6766V13.8901C95.6766 13.4985 95.7043 13.1083 95.7627 12.7239C95.8012 12.4783 95.8602 12.2461 95.9464 12.0318C96.2753 11.2501 97.0471 10.6997 97.9499 10.6997C99.0129 10.6997 99.8986 11.4637 100.085 12.4747C100.089 12.5025 100.092 12.5331 100.095 12.5644C100.13 12.9417 100.143 13.3433 100.143 13.7691V20.9629H103.632V12.4676C103.632 11.6474 103.518 10.9482 103.289 10.3672V10.3672ZM64.9206 11.0109C64.7825 10.3637 64.5404 9.81689 64.1973 9.36763C63.8548 8.91767 63.3842 8.56453 62.7854 8.31177C62.1866 8.05546 61.4227 7.93158 60.4914 7.93158C59.9824 7.93158 59.484 8.01061 58.9963 8.16653C58.1519 8.45346 57.415 8.97605 56.8682 9.65456C56.8127 9.73074 56.7607 9.80692 56.7094 9.88666V8.2598H53.2208V8.27333V10.7581V20.9664H56.7094V14.3116C56.7094 13.0215 56.9202 12.0902 57.3452 11.5263C57.3972 11.4608 57.4499 11.4017 57.5047 11.3434L57.5011 11.3398C57.7817 11.018 58.1483 10.7724 58.5634 10.6406C58.7784 10.5716 59.007 10.5367 59.2455 10.5367C60.27 10.5367 61.1344 11.1974 61.4426 12.118C61.5779 12.5715 61.6434 13.1283 61.6434 13.7968V20.9664H65.1314V13.1596C65.1314 12.3743 65.0623 11.6581 64.9206 11.0109V11.0109ZM38.7498 14.4682C38.4594 13.952 38.082 13.5234 37.6142 13.1874C37.1472 12.8485 36.6146 12.5822 36.0159 12.3814C35.4171 12.1842 34.8119 12.014 34.1925 11.8759C33.5553 11.7378 32.9394 11.6061 32.3406 11.4886C31.7419 11.3711 31.2122 11.2252 30.7423 11.0557C30.7109 11.0458 30.5344 10.976 30.5272 10.9724C30.503 10.9625 30.355 10.897 30.3514 10.897C30.2332 10.8379 30.1193 10.7795 30.0153 10.7168C29.6067 10.4505 29.3333 9.9899 29.3333 9.46375C29.3333 8.83792 29.7249 8.29824 30.2752 8.08038C30.5415 7.9864 30.8249 7.9209 31.126 7.88245C31.4514 7.84472 31.7348 7.82407 31.974 7.82407C32.7287 7.82407 33.3994 7.96219 33.9846 8.24271C34.5698 8.51967 34.9429 9.06646 35.1024 9.87954H38.6459C38.5491 9.02446 38.3063 8.29824 37.919 7.69235C37.5281 7.08361 37.0439 6.59235 36.4587 6.215C35.8706 5.83766 35.2163 5.56426 34.4937 5.39766C33.7667 5.22892 33.0056 5.14206 32.2125 5.14206C31.5169 5.14206 30.7871 5.21468 30.0217 5.3528C29.2578 5.49164 28.5615 5.73371 27.9364 6.08329C27.3134 6.42931 26.7937 6.8864 26.3893 7.45384C25.9799 8.01773 25.7762 8.71689 25.7762 9.55417C25.7762 10.3259 25.9151 10.976 26.1949 11.5057C26.4718 12.0283 26.8456 12.4605 27.3134 12.8001C27.7805 13.139 28.3059 13.4052 28.8904 13.6025C29.4757 13.8039 30.088 13.9691 30.7216 14.1115C31.3375 14.2496 31.9427 14.3778 32.5414 14.4988C33.1366 14.617 33.6663 14.7623 34.1341 14.9282C34.5827 15.0905 34.9536 15.3055 35.2476 15.5682L35.2441 15.5718C35.5623 15.8658 35.7603 16.2845 35.7603 16.7515C35.7603 17.2157 35.5623 17.6308 35.2512 17.9284C35.0575 18.1014 34.829 18.2396 34.5663 18.3399C34.2096 18.4781 33.8251 18.5756 33.4172 18.624C33.012 18.6717 32.6489 18.6966 32.33 18.6966C31.4165 18.6966 30.6348 18.4994 29.9776 18.1014C29.324 17.7063 28.946 17.0114 28.8456 16.0182H25.4509C25.4687 16.9317 25.6552 17.7212 26.0012 18.3848C26.3508 19.0498 26.8285 19.6065 27.4337 20.053C28.0432 20.4994 28.7594 20.8319 29.586 21.0533C30.4098 21.2711 31.3133 21.3787 32.2887 21.3787C33.0847 21.3787 33.8878 21.2882 34.7037 21.1117C35.521 20.9315 36.2615 20.6446 36.9293 20.2466C37.5936 19.8486 38.1375 19.3331 38.5562 18.6966C38.9741 18.063 39.182 17.2884 39.182 16.3742C39.182 15.6202 39.0368 14.9837 38.7498 14.4682V14.4682ZM66.4642 20.9629H69.9522V3.43261H66.4642V20.9629ZM9.92125 17.0634C9.82371 17.361 9.82727 18.6966 9.83439 18.9736V22.9941L13.2561 22.9977C13.4605 22.9977 13.5751 23.0048 13.7239 22.9941C13.7688 22.9941 13.8143 22.9906 13.8549 22.987C14.0108 22.9699 14.1497 22.9322 14.3362 22.8353C14.3469 22.8282 14.3533 22.8218 14.364 22.814C14.7513 22.589 15.0112 22.1675 15.0112 21.6862C15.0112 21.6549 15.0112 21.6271 15.0076 21.5965C15.0076 21.1295 15.0076 20.4125 15.0112 20.0914C15.0218 19.3367 15.108 18.3955 15.3743 17.8864L18.2813 13.1632H18.2777C18.4194 12.956 18.4991 12.7068 18.4991 12.4156V12.3957C18.4991 12.16 18.4372 11.9692 18.3297 11.8104C18.3226 11.7997 18.3162 11.7891 18.3055 11.7791C12.9863 4.62659 10.4887 1.18704 10.4225 1.09377C10.4082 1.07241 10.3947 1.05532 10.3812 1.0418V1.03752C10.3598 1.01759 10.3399 0.99979 10.3086 0.99979C10.3086 0.99979 10.2701 0.99623 10.2431 1.02756V1.03112C10.2317 1.04536 10.2146 1.07241 10.1975 1.10018C10.1769 1.12795 10.1598 1.15927 10.142 1.18704C10.1384 1.19772 10.132 1.20057 10.132 1.20057H10.1356C9.40507 2.46717 10.1598 3.57429 10.6752 4.51908C10.9315 5.00394 11.1765 5.43611 11.4264 5.84478V5.84763C11.9418 6.69203 12.5712 7.6475 13.17 8.60582C13.6306 9.24944 13.9069 9.98278 13.9069 10.8998C13.9069 11.8204 13.5374 12.8342 12.9863 13.5683C12.3391 14.5786 11.5026 15.1183 10.5955 15.9562C10.2281 16.298 10.0245 16.5892 9.92125 17.0634V17.0634ZM7.90316 15.9554C6.99325 15.1174 6.15597 14.5777 5.51163 13.5674C4.96199 12.8334 4.59105 11.8195 4.59105 10.8989C4.59105 9.98191 4.86801 9.24857 5.32865 8.60495C5.92743 7.64663 6.55681 6.69115 7.073 5.84675V5.8439C7.31863 5.43523 7.56782 5.00306 7.82413 4.5182C8.33889 3.57341 9.09358 2.46628 8.3631 1.19968C8.3631 1.19968 8.35954 1.19683 8.35313 1.18615C8.33533 1.15838 8.31824 1.12706 8.30044 1.09929C8.28336 1.07152 8.26627 1.04447 8.2563 1.03023L8.25274 1.02667C8.22497 0.995341 8.19009 0.998901 8.19009 0.998901C8.15876 0.998901 8.13526 1.0167 8.11462 1.03664V1.04091C8.10038 1.05444 8.09041 1.07152 8.07617 1.09288C8.00996 1.18615 5.51163 4.62571 0.193169 11.7782C0.183202 11.7882 0.17537 11.7989 0.166114 11.8096C0.0614536 11.9683 -0.000488281 12.1591 -0.000488281 12.3948V12.4147C-0.000488281 12.7059 0.079253 12.9551 0.217376 13.1623H0.214529L3.12438 17.8856C3.39065 18.3946 3.47752 19.3359 3.48748 20.0906C3.49104 20.4117 3.49104 21.1286 3.49104 21.5957C3.48748 21.6263 3.48748 21.6541 3.48748 21.6854C3.48748 22.1667 3.74735 22.5882 4.13467 22.8131C4.14179 22.821 4.15176 22.8274 4.16244 22.8345C4.34969 22.9313 4.48425 22.9691 4.64017 22.9862C4.68503 22.9897 4.72988 22.9933 4.77474 22.9933C4.92354 23.004 5.03746 22.9968 5.23894 22.9968H5.2425L8.6607 22.9933V18.9727C8.67138 18.6958 8.67494 17.3601 8.57811 17.0625C8.47416 16.5883 8.26912 16.2971 7.90316 15.9554V15.9554ZM9.25272 7.21818C7.2421 7.21818 5.61594 8.84505 5.61594 10.855C5.61594 12.862 7.2421 14.4917 9.25272 14.4917C11.2598 14.4917 12.8902 12.862 12.8902 10.855C12.8902 8.84505 11.2598 7.21818 9.25272 7.21818V7.21818Z" fill="#0075C9"/>
</svg>
